<svg xmlns="http://www.w3.org/2000/svg" width="396.596" height="102.342" viewBox="0 0 396.596 102.342" fill="none">
  <path d="M 396.596 100.417 L 379.354 102.342 L 348.293 71.28 L 357.876 61.697 L 396.596 100.417 Z M 77.894 75.332 L 77.894 0 L 93 0 L 93 101 L 80.809 101 L 15.258 25.686 L 15.258 101 L 0 101 L 0 0 L 12.189 0 L 77.894 75.332 Z M 122.825 62.999 C 122.825 69.839 125.41 76.223 130.273 80.935 C 134.985 85.799 141.369 88.383 148.209 88.383 C 154.897 88.383 161.281 85.799 165.993 80.935 C 170.857 76.223 173.441 69.839 173.441 62.999 L 173.453 28.156 L 186.221 28.156 L 186.221 28.157 L 186.209 63 C 186.209 67.774 185.307 72.414 183.613 76.732 C 183.387 77.308 183.147 77.878 182.894 78.442 C 181.625 81.262 180.01 83.928 178.083 86.384 C 177.89 86.629 177.695 86.873 177.496 87.114 C 176.7 88.08 175.854 89.01 174.961 89.903 C 174.291 90.573 173.6 91.215 172.89 91.828 C 172.653 92.033 172.413 92.234 172.172 92.432 C 171.207 93.223 170.207 93.964 169.178 94.651 C 168.92 94.823 168.661 94.992 168.4 95.157 C 167.095 95.984 165.743 96.727 164.354 97.384 C 163.798 97.647 163.236 97.896 162.668 98.131 C 160.114 99.189 157.446 99.964 154.707 100.44 C 154.403 100.493 154.097 100.542 153.791 100.588 C 151.955 100.861 150.09 101 148.209 101 C 146.299 101 144.411 100.861 142.557 100.588 C 142.248 100.542 141.94 100.493 141.633 100.44 C 138.868 99.964 136.182 99.189 133.617 98.131 C 133.047 97.896 132.483 97.647 131.926 97.384 C 130.531 96.727 129.177 95.984 127.869 95.157 C 127.608 94.992 127.348 94.823 127.091 94.651 C 126.06 93.964 125.06 93.223 124.095 92.432 C 123.853 92.234 123.614 92.033 123.377 91.828 C 122.666 91.215 121.975 90.573 121.306 89.903 C 120.413 89.01 119.569 88.08 118.777 87.114 C 118.579 86.873 118.385 86.629 118.193 86.384 C 116.278 83.928 114.687 81.262 113.441 78.442 C 113.192 77.878 112.957 77.308 112.736 76.732 C 111.078 72.414 110.209 67.774 110.209 63 L 110.221 28.157 L 110.221 28.156 L 122.837 28.156 L 122.825 62.999 Z M 225.209 6.5 L 225.209 28 L 251.209 28 L 251.209 42 L 225.209 42 L 225.209 72.5 C 225.209 76.193 227.277 81.43 229.209 83 C 231.141 84.477 234.861 86.337 239.635 86.337 L 251.059 86.337 L 251.059 99 L 237.078 99 C 235.188 99 233.461 98.881 231.859 98.642 C 231.402 98.573 230.954 98.495 230.516 98.407 C 230.078 98.319 229.649 98.222 229.229 98.114 C 228.808 98.007 228.395 97.89 227.99 97.763 C 227.788 97.699 227.587 97.633 227.389 97.564 C 226.991 97.428 226.601 97.281 226.217 97.125 C 226.025 97.047 225.834 96.967 225.645 96.884 C 225.077 96.635 224.522 96.363 223.977 96.07 C 223.25 95.68 222.54 95.25 221.841 94.781 C 221.316 94.43 220.797 94.057 220.281 93.661 C 219.421 93.002 218.568 92.281 217.709 91.5 C 216.303 89.887 215.137 88.403 214.197 86.835 C 214.009 86.521 213.83 86.205 213.66 85.883 C 213.236 85.078 212.868 84.241 212.554 83.346 C 212.428 82.988 212.311 82.621 212.203 82.243 C 211.825 80.919 211.553 79.46 211.382 77.793 C 211.309 77.078 211.253 76.325 211.217 75.528 C 211.193 74.997 211.177 74.446 211.169 73.874 C 211.165 73.588 211.163 73.297 211.163 73 L 211.163 42 L 197.209 42 L 197.209 28 L 211.209 28 L 211.209 23.11 L 211.163 23.11 L 211.163 6.5 L 225.209 6.5 Z M 308.209 42 L 276.209 42 L 276.209 98 L 263.209 98 L 263.209 28 L 308.209 28 L 308.209 42 Z M 335.209 62.293 L 370.34 28.852 L 389.503 28.852 L 335.209 81.27 L 335.209 98 L 321.209 98 L 321.209 1 L 335.209 1 L 335.209 62.293 Z M 181.209 15 L 116.209 15 L 116.209 1 L 181.209 1 L 181.209 15 Z" fill="currentColor" fill-rule="nonzero"></path>
</svg>